<svg id="Design" xmlns="http://www.w3.org/2000/svg" viewBox="0 0 61.67 61.67"><defs><style>.cls-1{fill:#fff;}</style></defs><title>instaagram_black</title><circle cx="30.84" cy="30.84" r="30.84"/><circle class="cls-1" cx="39.77" cy="21.97" r="1.98"/><path class="cls-1" d="M409.93,371.71a8.31,8.31,0,1,0,8.31,8.31A8.32,8.32,0,0,0,409.93,371.71Zm0,13.63a5.32,5.32,0,1,1,5.32-5.32A5.33,5.33,0,0,1,409.93,385.34Z" transform="translate(-378.96 -349.18)"/><path class="cls-1" d="M416.53,396.89H403.06a10.14,10.14,0,0,1-10.13-10.13V373.29a10.14,10.14,0,0,1,10.13-10.13h13.47a10.14,10.14,0,0,1,10.13,10.13v13.47A10.14,10.14,0,0,1,416.53,396.89Zm-13.47-30.56a7,7,0,0,0-7,7v13.47a7,7,0,0,0,7,7h13.47a7,7,0,0,0,7-7V373.29a7,7,0,0,0-7-7Z" transform="translate(-378.96 -349.18)"/></svg>